<mxfile host="app.diagrams.net" modified="2021-05-01T14:19:04.549Z" agent="5.0 (Macintosh; Intel Mac OS X 10_15_7) AppleWebKit/537.36 (KHTML, like Gecko) Chrome/90.0.4430.93 Safari/537.36" etag="_olSyVTbMAHAbIiZsBLi" version="14.6.0" type="github">
  <diagram id="FOmxgMX67wGakex5m7zn" name="Page-1">
    <mxGraphModel dx="1298" dy="838" grid="1" gridSize="10" guides="1" tooltips="1" connect="1" arrows="1" fold="1" page="1" pageScale="1" pageWidth="827" pageHeight="1169" math="0" shadow="0">
      <root>
        <mxCell id="0" />
        <mxCell id="1" parent="0" />
        <mxCell id="8ijtnTTrKfi8jmaUwXAK-3" value="" style="edgeStyle=orthogonalEdgeStyle;rounded=0;orthogonalLoop=1;jettySize=auto;html=1;" edge="1" parent="1" source="8ijtnTTrKfi8jmaUwXAK-1" target="8ijtnTTrKfi8jmaUwXAK-2">
          <mxGeometry relative="1" as="geometry" />
        </mxCell>
        <mxCell id="8ijtnTTrKfi8jmaUwXAK-9" value="输入手机号&lt;br&gt;输入密码（未注册可以随意输入）" style="edgeLabel;html=1;align=center;verticalAlign=middle;resizable=0;points=[];" vertex="1" connectable="0" parent="8ijtnTTrKfi8jmaUwXAK-3">
          <mxGeometry x="-0.3143" y="-1" relative="1" as="geometry">
            <mxPoint x="1" y="6" as="offset" />
          </mxGeometry>
        </mxCell>
        <mxCell id="8ijtnTTrKfi8jmaUwXAK-1" value="登录注册" style="rounded=0;whiteSpace=wrap;html=1;" vertex="1" parent="1">
          <mxGeometry x="350" y="150" width="120" height="60" as="geometry" />
        </mxCell>
        <mxCell id="8ijtnTTrKfi8jmaUwXAK-5" value="" style="edgeStyle=orthogonalEdgeStyle;rounded=0;orthogonalLoop=1;jettySize=auto;html=1;" edge="1" parent="1" source="8ijtnTTrKfi8jmaUwXAK-2" target="8ijtnTTrKfi8jmaUwXAK-4">
          <mxGeometry relative="1" as="geometry" />
        </mxCell>
        <mxCell id="8ijtnTTrKfi8jmaUwXAK-6" value="是" style="edgeLabel;html=1;align=center;verticalAlign=middle;resizable=0;points=[];" vertex="1" connectable="0" parent="8ijtnTTrKfi8jmaUwXAK-5">
          <mxGeometry x="-0.1111" y="2" relative="1" as="geometry">
            <mxPoint x="-3" y="-4" as="offset" />
          </mxGeometry>
        </mxCell>
        <mxCell id="8ijtnTTrKfi8jmaUwXAK-33" value="" style="edgeStyle=orthogonalEdgeStyle;rounded=0;orthogonalLoop=1;jettySize=auto;html=1;" edge="1" parent="1" source="8ijtnTTrKfi8jmaUwXAK-2" target="8ijtnTTrKfi8jmaUwXAK-32">
          <mxGeometry relative="1" as="geometry" />
        </mxCell>
        <mxCell id="8ijtnTTrKfi8jmaUwXAK-34" value="否" style="edgeLabel;html=1;align=center;verticalAlign=middle;resizable=0;points=[];" vertex="1" connectable="0" parent="8ijtnTTrKfi8jmaUwXAK-33">
          <mxGeometry x="-0.5" y="3" relative="1" as="geometry">
            <mxPoint x="15" y="3" as="offset" />
          </mxGeometry>
        </mxCell>
        <mxCell id="8ijtnTTrKfi8jmaUwXAK-2" value="是否已注册" style="rhombus;whiteSpace=wrap;html=1;rounded=0;" vertex="1" parent="1">
          <mxGeometry x="370" y="280" width="80" height="80" as="geometry" />
        </mxCell>
        <mxCell id="8ijtnTTrKfi8jmaUwXAK-8" value="" style="edgeStyle=orthogonalEdgeStyle;rounded=0;orthogonalLoop=1;jettySize=auto;html=1;exitX=0.5;exitY=1;exitDx=0;exitDy=0;" edge="1" parent="1" source="8ijtnTTrKfi8jmaUwXAK-4" target="8ijtnTTrKfi8jmaUwXAK-7">
          <mxGeometry relative="1" as="geometry">
            <mxPoint x="410" y="430" as="sourcePoint" />
          </mxGeometry>
        </mxCell>
        <mxCell id="8ijtnTTrKfi8jmaUwXAK-4" value="校验密码" style="shape=process;whiteSpace=wrap;html=1;backgroundOutline=1;" vertex="1" parent="1">
          <mxGeometry x="350" y="400" width="120" height="60" as="geometry" />
        </mxCell>
        <mxCell id="8ijtnTTrKfi8jmaUwXAK-13" value="" style="edgeStyle=orthogonalEdgeStyle;rounded=0;orthogonalLoop=1;jettySize=auto;html=1;entryX=0.5;entryY=0;entryDx=0;entryDy=0;" edge="1" parent="1" source="8ijtnTTrKfi8jmaUwXAK-7" target="8ijtnTTrKfi8jmaUwXAK-19">
          <mxGeometry relative="1" as="geometry">
            <mxPoint x="410" y="670" as="targetPoint" />
          </mxGeometry>
        </mxCell>
        <mxCell id="8ijtnTTrKfi8jmaUwXAK-14" value="正确" style="edgeLabel;html=1;align=center;verticalAlign=middle;resizable=0;points=[];" vertex="1" connectable="0" parent="8ijtnTTrKfi8jmaUwXAK-13">
          <mxGeometry x="-0.4889" y="2" relative="1" as="geometry">
            <mxPoint x="-2" y="17" as="offset" />
          </mxGeometry>
        </mxCell>
        <mxCell id="8ijtnTTrKfi8jmaUwXAK-30" value="错误" style="edgeStyle=orthogonalEdgeStyle;rounded=0;orthogonalLoop=1;jettySize=auto;html=1;" edge="1" parent="1" source="8ijtnTTrKfi8jmaUwXAK-7" target="8ijtnTTrKfi8jmaUwXAK-29">
          <mxGeometry relative="1" as="geometry" />
        </mxCell>
        <mxCell id="8ijtnTTrKfi8jmaUwXAK-7" value="账户密码&lt;br&gt;是否正确" style="rhombus;whiteSpace=wrap;html=1;rounded=0;" vertex="1" parent="1">
          <mxGeometry x="370" y="500" width="80" height="80" as="geometry" />
        </mxCell>
        <mxCell id="8ijtnTTrKfi8jmaUwXAK-22" value="" style="edgeStyle=orthogonalEdgeStyle;rounded=0;orthogonalLoop=1;jettySize=auto;html=1;" edge="1" parent="1" source="8ijtnTTrKfi8jmaUwXAK-19" target="8ijtnTTrKfi8jmaUwXAK-21">
          <mxGeometry relative="1" as="geometry" />
        </mxCell>
        <mxCell id="8ijtnTTrKfi8jmaUwXAK-27" value="返回给客户端" style="edgeLabel;html=1;align=center;verticalAlign=middle;resizable=0;points=[];" vertex="1" connectable="0" parent="8ijtnTTrKfi8jmaUwXAK-22">
          <mxGeometry x="-0.15" y="-1" relative="1" as="geometry">
            <mxPoint x="1" as="offset" />
          </mxGeometry>
        </mxCell>
        <mxCell id="8ijtnTTrKfi8jmaUwXAK-19" value="服务端生成Token" style="shape=process;whiteSpace=wrap;html=1;backgroundOutline=1;" vertex="1" parent="1">
          <mxGeometry x="310" y="650" width="200" height="60" as="geometry" />
        </mxCell>
        <mxCell id="8ijtnTTrKfi8jmaUwXAK-26" value="" style="edgeStyle=orthogonalEdgeStyle;rounded=0;orthogonalLoop=1;jettySize=auto;html=1;" edge="1" parent="1" source="8ijtnTTrKfi8jmaUwXAK-21" target="8ijtnTTrKfi8jmaUwXAK-25">
          <mxGeometry relative="1" as="geometry" />
        </mxCell>
        <mxCell id="8ijtnTTrKfi8jmaUwXAK-28" value="控制路由" style="edgeLabel;html=1;align=center;verticalAlign=middle;resizable=0;points=[];" vertex="1" connectable="0" parent="8ijtnTTrKfi8jmaUwXAK-26">
          <mxGeometry x="-0.225" y="-2" relative="1" as="geometry">
            <mxPoint x="2" as="offset" />
          </mxGeometry>
        </mxCell>
        <mxCell id="8ijtnTTrKfi8jmaUwXAK-21" value="客户端接收并存储Token，下次请求时带上Token" style="shape=process;whiteSpace=wrap;html=1;backgroundOutline=1;size=0;spacingLeft=20;spacingRight=20;" vertex="1" parent="1">
          <mxGeometry x="310" y="760" width="200" height="60" as="geometry" />
        </mxCell>
        <mxCell id="8ijtnTTrKfi8jmaUwXAK-25" value="进入应用首页" style="whiteSpace=wrap;html=1;spacingLeft=20;spacingRight=20;" vertex="1" parent="1">
          <mxGeometry x="310" y="860" width="200" height="60" as="geometry" />
        </mxCell>
        <mxCell id="8ijtnTTrKfi8jmaUwXAK-31" style="edgeStyle=orthogonalEdgeStyle;rounded=0;orthogonalLoop=1;jettySize=auto;html=1;entryX=0;entryY=0.5;entryDx=0;entryDy=0;" edge="1" parent="1" source="8ijtnTTrKfi8jmaUwXAK-29" target="8ijtnTTrKfi8jmaUwXAK-1">
          <mxGeometry relative="1" as="geometry">
            <Array as="points">
              <mxPoint x="130" y="180" />
            </Array>
          </mxGeometry>
        </mxCell>
        <mxCell id="8ijtnTTrKfi8jmaUwXAK-29" value="返回登录注册页面" style="whiteSpace=wrap;html=1;rounded=0;" vertex="1" parent="1">
          <mxGeometry x="70" y="300" width="120" height="60" as="geometry" />
        </mxCell>
        <mxCell id="8ijtnTTrKfi8jmaUwXAK-36" value="" style="edgeStyle=orthogonalEdgeStyle;rounded=0;orthogonalLoop=1;jettySize=auto;html=1;" edge="1" parent="1">
          <mxGeometry relative="1" as="geometry">
            <mxPoint x="665" y="450" as="sourcePoint" />
            <mxPoint x="410" y="600" as="targetPoint" />
            <Array as="points">
              <mxPoint x="665" y="600" />
            </Array>
          </mxGeometry>
        </mxCell>
        <mxCell id="8ijtnTTrKfi8jmaUwXAK-32" value="将现输入的密码作为下次登录的密码，自动将账户信息写入数据库" style="shape=process;whiteSpace=wrap;html=1;backgroundOutline=1;" vertex="1" parent="1">
          <mxGeometry x="560" y="420" width="210" height="60" as="geometry" />
        </mxCell>
      </root>
    </mxGraphModel>
  </diagram>
</mxfile>
